<?xml version="1.0" encoding="UTF-8" standalone="no"?>
<!DOCTYPE svg PUBLIC "-//W3C//DTD SVG 1.1//EN" "http://www.w3.org/Graphics/SVG/1.1/DTD/svg11.dtd">
<svg width="100%" height="100%" viewBox="0 0 497 370" version="1.1" xmlns="http://www.w3.org/2000/svg" xmlns:xlink="http://www.w3.org/1999/xlink" xml:space="preserve" style="fill-rule:evenodd;clip-rule:evenodd;stroke-linecap:round;stroke-linejoin:round;">
    <g id="OBJECTS">
        <g>
            <path d="M308.3,357.8C308.3,361.1 305.7,363.7 302.4,363.7L193.9,363.7C190.6,363.7 188,361.1 188,357.8C188,354.5 190.6,351.9 193.9,351.9L302.4,351.9C305.6,351.9 308.3,354.6 308.3,357.8Z" style="fill:rgb(67,52,35);fill-rule:nonzero;"/>
            <g>
                <path d="M376.1,171C376.1,174.6 373.2,177.6 369.5,177.6L126.7,177.6C123.1,177.6 120.1,174.7 120.1,171C120.1,167.4 123,164.4 126.7,164.4L369.5,164.4C373.2,164.5 376.1,167.4 376.1,171Z" style="fill:rgb(126,79,35);fill-rule:nonzero;"/>
                <path d="M368,182.1C368,184.8 365.8,187 363.1,187L133.1,187C130.4,187 128.2,184.8 128.2,182.1C128.2,179.4 130.4,177.2 133.1,177.2L363.1,177.2C365.8,177.2 368,179.4 368,182.1Z" style="fill:rgb(67,52,35);fill-rule:nonzero;"/>
                <path d="M328,363.7C328,366.4 325.8,368.6 323.1,368.6L173.1,368.6C170.4,368.6 168.2,366.4 168.2,363.7C168.2,361 170.4,358.8 173.1,358.8L323.1,358.8C325.8,358.8 328,361 328,363.7Z" style="fill:rgb(67,52,35);fill-rule:nonzero;"/>
                <path d="M248.1,199C276.6,199 299.7,189.9 299.7,178.8L196.5,178.8C196.5,189.9 219.6,199 248.1,199Z" style="fill:rgb(67,52,35);fill-rule:nonzero;"/>
            </g>
            <path d="M257.9,337.3C257.9,341.3 253.6,344.6 248.2,344.6C242.8,344.6 238.5,341.3 238.5,337.3L238.5,186.1C238.5,182.1 242.8,178.8 248.2,178.8C253.6,178.8 257.9,182.1 257.9,186.1L257.9,337.3Z" style="fill:rgb(67,52,35);fill-rule:nonzero;"/>
            <path d="M269.8,334.2L226.4,334.2C226.4,341.1 220.8,346.6 214,346.6L214,354.9L282.2,354.9L282.2,346.6C275.4,346.6 269.8,341.1 269.8,334.2Z" style="fill:rgb(67,52,35);fill-rule:nonzero;"/>
            <path d="M357.5,164.5L248.1,276.9L134.8,164.5L357.5,164.5Z" style="fill:rgb(255,72,60);fill-rule:nonzero;"/>
            <g>
                <path d="M348.9,165.5L347.2,167.3" style="fill:none;stroke:white;stroke-width:1px;"/>
                <path d="M343.6,171L251.5,265.7" style="fill:none;stroke:white;stroke-width:1px;stroke-dasharray:5.18,5.18;"/>
                <path d="M249.7,267.5L248,269.3L246.2,267.5" style="fill:none;stroke:white;stroke-width:1px;"/>
                <path d="M242.7,264.1L146.9,169" style="fill:none;stroke:white;stroke-width:1px;stroke-dasharray:4.91,4.91;"/>
                <path d="M145.1,167.2L143.3,165.5" style="fill:none;stroke:white;stroke-width:1px;"/>
            </g>
        </g>
        <g>
            <path d="M478.4,238.4C478.4,242.9 474.7,246.6 470.2,246.6L362.2,246.6C357.7,246.6 354,242.9 354,238.4C354,233.9 357.7,230.2 362.2,230.2L470.2,230.2C474.7,230.3 478.4,233.9 478.4,238.4Z" style="fill:rgb(255,72,60);fill-rule:nonzero;"/>
            <path d="M478.4,252.3C478.4,255.7 475.7,258.4 472.3,258.4L370.2,258.4C366.8,258.4 364.1,255.7 364.1,252.3C364.1,248.9 366.8,246.2 370.2,246.2L472.3,246.2C475.7,246.2 478.4,248.9 478.4,252.3Z" style="fill:rgb(67,52,35);fill-rule:nonzero;"/>
        </g>
        <path d="M479.2,251.9C479.1,255.5 476.1,258.4 472.5,258.3C468.9,258.2 466,255.2 466.1,251.5C467.4,208.3 473,165.3 482.8,123.1C483.6,119.5 487.2,117.3 490.7,118.1C494.2,119 496.4,122.5 495.5,126C486,167.4 480.5,209.5 479.2,251.9Z" style="fill:rgb(67,52,35);fill-rule:nonzero;"/>
        <g>
            <path d="M17.9,238.4C17.9,242.9 21.6,246.6 26.1,246.6L134.1,246.6C138.6,246.6 142.3,242.9 142.3,238.4C142.3,233.9 138.6,230.2 134.1,230.2L26.1,230.2C21.6,230.3 17.9,233.9 17.9,238.4Z" style="fill:rgb(255,72,60);fill-rule:nonzero;"/>
            <path d="M17.9,252.3C17.9,255.7 20.6,258.4 24,258.4L126.1,258.4C129.5,258.4 132.2,255.7 132.2,252.3C132.2,248.9 129.5,246.2 126.1,246.2L24,246.2C20.6,246.2 17.9,248.9 17.9,252.3Z" style="fill:rgb(67,52,35);fill-rule:nonzero;"/>
        </g>
        <path d="M17.1,251.9C17.2,255.5 20.2,258.4 23.8,258.3C27.4,258.2 30.3,255.2 30.2,251.5C28.9,208.3 23.3,165.3 13.4,123.2C12.6,119.6 9,117.4 5.5,118.2C2,119.1 -0.1,122.6 0.7,126.1C10.3,167.4 15.8,209.5 17.1,251.9Z" style="fill:rgb(67,52,35);fill-rule:nonzero;"/>
        <g>
            <path d="M465.1,363.6L469.3,363.6C471,363.6 472.3,362.3 472.3,360.6L472.3,254.5C472.3,252.8 471,251.5 469.3,251.5L465.1,251.5C463.5,251.5 462.1,252.8 462.1,254.5L462.1,360.6C462.1,362.3 463.5,363.6 465.1,363.6Z" style="fill:rgb(67,52,35);fill-rule:nonzero;"/>
            <path d="M374,363.6L378.2,363.6C379.8,363.6 381.2,362.3 381.2,360.6L381.2,254.5C381.2,252.8 379.8,251.5 378.2,251.5L374,251.5C372.4,251.5 371,252.8 371,254.5L371,360.6C371,362.3 372.4,363.6 374,363.6Z" style="fill:rgb(67,52,35);fill-rule:nonzero;"/>
            <path d="M373.6,312.4L373.6,314.3C373.6,316 375,317.3 376.6,317.3L464.2,317.3C465.8,317.3 467.2,316 467.2,314.3L467.2,312.4C467.2,310.8 465.8,309.4 464.2,309.4L376.6,309.4C375,309.4 373.6,310.7 373.6,312.4Z" style="fill:rgb(67,52,35);fill-rule:nonzero;"/>
            <path d="M373.6,329.4L373.6,331.3C373.6,332.9 375,334.3 376.6,334.3L464.2,334.3C465.8,334.3 467.2,332.9 467.2,331.3L467.2,329.4C467.2,327.8 465.8,326.4 464.2,326.4L376.6,326.4C375,326.4 373.6,327.7 373.6,329.4Z" style="fill:rgb(67,52,35);fill-rule:nonzero;"/>
        </g>
        <g>
            <path d="M118.5,363.6L122.7,363.6C124.4,363.6 125.7,362.3 125.7,360.6L125.7,254.5C125.7,252.8 124.4,251.5 122.7,251.5L118.5,251.5C116.8,251.5 115.5,252.8 115.5,254.5L115.5,360.6C115.5,362.3 116.8,363.6 118.5,363.6Z" style="fill:rgb(67,52,35);fill-rule:nonzero;"/>
            <path d="M27.4,363.6L31.6,363.6C33.3,363.6 34.6,362.3 34.6,360.6L34.6,254.5C34.6,252.8 33.3,251.5 31.6,251.5L27.4,251.5C25.8,251.5 24.4,252.8 24.4,254.5L24.4,360.6C24.4,362.3 25.7,363.6 27.4,363.6Z" style="fill:rgb(67,52,35);fill-rule:nonzero;"/>
            <path d="M27,312.4L27,314.3C27,316 28.4,317.3 30,317.3L117.6,317.3C119.3,317.3 120.6,316 120.6,314.3L120.6,312.4C120.6,310.8 119.3,309.4 117.6,309.4L30,309.4C28.3,309.4 27,310.7 27,312.4Z" style="fill:rgb(67,52,35);fill-rule:nonzero;"/>
            <path d="M27,329.4L27,331.3C27,332.9 28.4,334.3 30,334.3L117.6,334.3C119.3,334.3 120.6,332.9 120.6,331.3L120.6,329.4C120.6,327.8 119.3,326.4 117.6,326.4L30,326.4C28.3,326.4 27,327.7 27,329.4Z" style="fill:rgb(67,52,35);fill-rule:nonzero;"/>
        </g>
    </g>
    <rect x="421.9" y="89.8" width="16.7" height="18.7" style="fill:rgb(239,194,149);"/>
    <g transform="matrix(0.968485,0.249072,-0.249072,0.968485,42.711,-102.431)">
        <path d="M341.7,164.6L341.7,164C341.7,156.1 336.8,149.7 330.7,149.7L309.6,149.7C303.5,149.7 298.6,156.1 298.6,164L298.6,164.6L341.7,164.6Z" style="fill:rgb(239,194,149);fill-rule:nonzero;"/>
    </g>
    <path d="M439.6,193L404.2,193L404.2,204L342.3,204C334.9,204 329,208.9 329,215L329,219C329,225.1 335,230 342.3,230L439.6,230C447,230 452.9,225.1 452.9,219L452.9,204C452.9,197.9 446.9,193 439.6,193Z" style="fill:rgb(51,51,51);fill-rule:nonzero;"/>
    <path d="M452.9,203.9L452.9,117.7C452.9,111.6 448,106.7 441.9,106.7L412.1,106.7C406,106.7 401.1,111.6 401.1,117.7L401.1,203.9L452.9,203.9Z" style="fill:rgb(80,59,89);fill-rule:nonzero;"/>
    <path d="M354.7,344.5L354.7,215C354.7,208.9 349.8,204 343.7,204L339.6,204C333.5,204 328.6,208.9 328.6,215L328.6,344.6C328.6,347 330.5,348.9 332.9,348.9L350.5,348.9C352.8,348.8 354.7,346.9 354.7,344.5Z" style="fill:rgb(51,51,51);fill-rule:nonzero;"/>
    <path d="M311.6,328.8L360,207.8C362.3,202.1 359.5,195.7 353.9,193.4L350.1,191.9C344.4,189.6 338,192.4 335.7,198.1L287.3,319.1C286.4,321.3 287.5,323.8 289.7,324.7L306,331.2C308.2,332.1 310.7,331 311.6,328.8Z" style="fill:rgb(51,51,51);fill-rule:nonzero;"/>
    <g>
        <path d="M350.5,368.8C352.8,368.8 354.8,367 354.8,364.7L354.8,353.1C354.8,350.7 352.9,348.8 350.5,348.8L343.7,348.8L322.4,348.8C314,348.8 307.1,355.6 307.1,364.1L307.1,364.7C307.1,367 309.1,368.8 311.4,368.8L350.5,368.8Z" style="fill:rgb(91,95,96);fill-rule:nonzero;"/>
        <path d="M307.2,364.3L307.2,364.7C307.2,367 309.2,368.8 311.5,368.8L350.5,368.8C352.8,368.8 354.8,367 354.8,364.7L354.8,364.3L307.2,364.3Z" style="fill:rgb(51,51,51);fill-rule:nonzero;"/>
    </g>
    <g>
        <path d="M306.6,334.3C308.9,334.3 310.9,332.5 310.9,330.2L310.9,318.6C310.9,316.2 309,314.3 306.6,314.3L299.8,314.3L278.5,314.3C270.1,314.3 263.2,321.1 263.2,329.6L263.2,330.2C263.2,332.5 265.2,334.3 267.5,334.3L306.6,334.3Z" style="fill:rgb(91,95,96);fill-rule:nonzero;"/>
        <path d="M263.3,329.8L263.3,330.2C263.3,332.5 265.3,334.3 267.6,334.3L306.6,334.3C308.9,334.3 310.9,332.5 310.9,330.2L310.9,329.8L263.3,329.8Z" style="fill:rgb(51,51,51);fill-rule:nonzero;"/>
    </g>
    <path d="M441.4,123.3C444.2,128.7 442.1,135.4 436.7,138.2L388.3,163.4C382.9,166.2 376.2,164.1 373.4,158.7L371.5,155.1C368.7,149.7 370.8,143 376.2,140.2L424.6,115C430,112.2 436.7,114.3 439.5,119.7L441.4,123.3Z" style="fill:rgb(55,35,56);fill-rule:nonzero;"/>
    <g transform="matrix(0.937013,0.349295,-0.349295,0.937013,74.0845,-123.76)">
        <path d="M393.1,149.5C393.1,143.4 388.2,138.5 382.1,138.5L328,138.6L328,164.7L382.1,164.6C388.2,164.6 393.1,159.7 393.1,153.6L393.1,149.5Z" style="fill:rgb(55,35,56);fill-rule:nonzero;"/>
    </g>
    <path d="M448.3,90.5C448.3,93 446.3,95 443.8,95L429.1,95C415.4,95 404.2,83.9 404.2,70.1L404.2,39C404.2,36.5 406.2,34.5 408.7,34.5L443.8,34.5C446.3,34.5 448.3,36.5 448.3,39L448.3,90.5Z" style="fill:rgb(239,194,149);fill-rule:nonzero;"/>
    <path d="M400.3,18.2C400.3,18.2 389.8,33.8 404.2,42.6C404.2,42.6 428.9,36.2 434,43.6C439.1,51 431.3,62.2 431.3,62.2L432.4,65.4L435.7,68.3L435.7,68.2C435.7,68.2 438,61.1 442.3,66.3C446.6,71.5 434.1,120.3 429.4,120.3C429.4,120.3 458.6,122.8 471.9,112.6C471.9,112.6 464.5,100 458.4,73.3C454.8,57.4 455.8,33.6 451.2,29.8C439.6,20.1 413.4,27.5 411.6,27.4C409.9,27.3 398.5,28.6 400.3,18.2Z" style="fill:rgb(53,49,46);fill-rule:nonzero;"/>
    <g transform="matrix(-1,0,0,1,496.659,0.275384)">
        <path d="M470.5,157.6C470.5,157.6 475,176.3 470.6,193.5C466.2,210.7 467.2,228.5 453.8,230.1C436.6,232.2 422.5,232.1 421.3,227.4C420.1,222.7 407.9,219.3 420.1,202.5C430.43,188.275 442.481,182.438 446.904,175.884C447.704,174.697 448.255,173.487 448.5,172.2C450.1,163.8 454.6,153.6 461.5,153.1C468.4,152.6 470.5,157.6 470.5,157.6Z" style="fill:rgb(49,44,61);fill-rule:nonzero;"/>
    </g>
    <g transform="matrix(-1,0,0,1,496.659,0.275384)">
        <path d="M469.7,158.6C469.7,158.6 474.2,147.8 469.8,144.9C465.4,142 467.8,152.1 461.9,156" style="fill:none;stroke:rgb(61,61,61);stroke-width:2px;stroke-linecap:butt;stroke-linejoin:miter;stroke-miterlimit:10;"/>
    </g>
    <g transform="matrix(-1,0,0,1,496.659,0.275384)">
        <path d="M466.7,159.4C466.7,159.4 471.2,148.6 466.8,145.7C462.4,142.8 464.8,152.9 458.9,156.8" style="fill:none;stroke:rgb(61,61,61);stroke-width:1px;stroke-linecap:butt;stroke-linejoin:miter;stroke-miterlimit:10;"/>
    </g>
    <g transform="matrix(-1,0,0,1,496.659,0.275384)">
        <path d="M437.6,184.8C437.6,184.8 445.8,190.1 451.9,183C458,175.9 461.2,162.7 461.2,162.7L460.5,153.3C460.5,153.3 452.4,155.9 450.6,159.8C448.8,163.7 437.8,178.3 436.9,180.7C436.1,183.2 437.6,184.8 437.6,184.8Z" style="fill:rgb(14,19,58);fill-rule:nonzero;"/>
    </g>
    <path d="M340.7,217.6L404.4,230.9C407.4,231.5 410.8,227.2 412.1,221.2L412.9,217.2C414.1,211.2 412.7,205.9 409.7,205.3L346.1,192C344.9,191.8 343.6,193.4 343.1,195.7L339.5,212.9C339,215.3 339.6,217.3 340.7,217.6Z" style="fill:rgb(51,51,51);fill-rule:nonzero;"/>
    <g transform="matrix(0.236516,0,0,0.236516,43.3059,247.142)">
        <path d="M417.391,313.629L417.391,512L456.348,512L456.348,312.233C443.629,312.233 422.492,313.629 417.391,313.629Z" style="fill:rgb(55,35,56);fill-rule:nonzero;"/>
        <path d="M166.957,333.444L166.957,512L205.913,512L205.913,397.913C245.018,397.913 280.494,382.394 306.534,357.187L306.632,332.783C306.632,332.783 168.852,333.444 166.957,333.444Z" style="fill:rgb(28,17,49);fill-rule:nonzero;"/>
        <path d="M374.274,359.773L384,359.214C395.814,355.918 407.003,351.14 417.391,345.128C432.253,336.528 445.437,325.363 456.348,312.233C476.074,288.495 488.375,258.365 489.622,225.391L489.739,225.391L489.739,115.385L374.274,126.515L374.274,359.773Z" style="fill:rgb(224,213,109);fill-rule:nonzero;"/>
        <path d="M225.719,341.793C244.696,317.315 277.507,286.877 308.222,256.164L256,200.095L111.304,219.826C68.274,219.826 33.391,184.943 33.391,141.913C33.391,98.883 68.274,64 111.304,64L111.304,30.609C49.832,30.609 0,80.441 0,141.913C0,203.385 49.832,253.217 111.304,253.217L111.304,361.739L72.347,361.739L72.347,512L111.304,512L111.304,397.913C131.026,397.913 149.823,393.961 166.957,386.816C190.256,377.099 210.466,361.466 225.719,341.793Z" style="fill:rgb(80,59,89);fill-rule:nonzero;"/>
        <path d="M489.739,52.473L467.478,33.392L437.426,33.392L437.426,0C423.997,0 412.536,8.386 407.954,20.196L343.42,186.666L256,200.095L256,253.217C256,286.589 244.697,317.315 225.719,341.793L306.534,357.187L345.043,364.522L345.043,512L384,512L384,324.188C425,309 454.502,270.439 456.254,224.128L456.348,224.131L456.348,126.515L489.739,115.385L490.881,115.004C502.497,111.133 512,97.948 512,85.705L512,55.653L489.739,52.473Z" style="fill:rgb(55,35,56);fill-rule:nonzero;"/>
    </g>
    <g transform="matrix(-1,0,0,1,510.58,-0.584019)">
        <rect x="177.2" y="160.1" width="66.8" height="4.4" style="fill:rgb(51,51,51);"/>
    </g>
    <g transform="matrix(-0.306,-0.952,-0.952,0.306,461.007,329.943)">
        <rect x="219.2" y="130.2" width="64.5" height="2.2" style="fill:rgb(51,51,51);"/>
    </g>
</svg>
